<svg width="30" height="30" viewBox="0 0 30 30" fill="none" xmlns="http://www.w3.org/2000/svg">
<path d="M29.7026 12.9433L21.8253 10.2978C22.1673 8.70045 22.1467 7.67562 22.1166 7.27387C22.1199 7.21687 22.1199 7.1601 22.1199 7.10988C22.1199 3.18841 18.9316 0 15.0098 0C11.1015 0 7.92005 3.17137 7.9033 7.07639C7.86312 7.37446 7.68231 9.1828 8.7674 12.4348L0.576078 9.68484C0.442219 9.64139 0.294815 9.66148 0.180811 9.74511C0.067046 9.82547 0 9.95955 0 10.1002V26.3054C0 26.4932 0.12054 26.6607 0.298086 26.7207L10.0066 29.976C10.1003 30.0098 10.1975 30.0061 10.2879 29.976L19.8559 26.7644L29.4239 29.976C29.4709 29.9928 29.5174 29.9993 29.5646 29.9993C29.655 29.9993 29.7416 29.9725 29.8192 29.9157C29.933 29.8354 30 29.7048 30 29.5641V13.3554C30 13.1673 29.8795 12.9998 29.7019 12.9431L29.7026 12.9433ZM21.3504 11.0612L22.8911 17.759L20.1184 17.5815V14.3262C20.6543 13.0636 21.019 11.9652 21.2671 11.0308L21.3504 11.0612ZM15.0106 3.19781C17.1673 3.19781 18.9222 4.95265 18.9222 7.10923C18.9222 9.26582 17.1673 11.0206 15.0106 11.0206C12.854 11.0206 11.0991 9.26582 11.0991 7.10923C11.0991 4.95265 12.854 3.19781 15.0106 3.19781ZM10.409 15.4818C11.176 17.1027 12.2274 18.9846 13.6644 21.1114L10.409 23.0003V15.4818ZM0.874512 10.7063L3.20219 11.4865L1.69167 15.8065L0.874512 15.1001V10.7063ZM0.874512 15.7899L1.63821 16.4496L4.95032 19.3028L0.874571 25.2139L0.874512 15.7899ZM9.88336 29.0146L0.95106 26.0172L5.35178 19.6441L9.88312 23.5455L9.88336 29.0146ZM9.88336 22.8561L5.4693 19.0585L2.12029 16.1716L3.69761 11.654L6.58781 12.6219L8.8585 13.3855L9.34067 13.5462L9.59857 13.6334C9.68898 13.8579 9.78265 14.0854 9.88334 14.3232L9.88336 22.8561ZM19.5919 25.9339L10.409 29.0149V23.603L13.9625 21.5468C14.2236 21.929 14.4984 22.317 14.7897 22.7156C14.8399 22.7826 14.917 22.8228 15.0006 22.8228C15.0842 22.8228 15.1646 22.7826 15.2116 22.7156C16.0086 21.6202 16.7053 20.5823 17.3215 19.5977L19.5922 18.2846L19.5919 25.9339ZM19.5919 17.6788L17.894 18.6634C18.5708 17.5213 19.1298 16.4631 19.5919 15.4885V17.6788ZM29.13 28.9581L20.1176 25.9341V18.1078L29.13 18.6804V28.9581ZM29.13 18.1548L23.4368 17.7932L21.933 11.2556L29.1298 13.6701L29.13 18.1548Z" fill="#F24E1D"/>
</svg>
