<svg width="24" height="24" viewBox="0 0 24 24" fill="none" xmlns="http://www.w3.org/2000/svg">
<path d="M16.8227 6.33453C16.8227 6.47549 16.702 6.5863 16.5484 6.5863C16.3948 6.5863 16.2631 6.47549 16.2631 6.33453C16.2412 3.1521 13.3988 0.533642 9.93105 0.513542C9.77744 0.513542 9.64581 0.402732 9.64581 0.261769C9.64581 0.120805 9.77744 0 9.93105 0C13.7063 0.0201636 16.8012 2.86015 16.8231 6.33489L16.8227 6.33453Z" fill="#FFE8E1"/>
<path d="M15.3195 6.18295C15.3304 6.32392 15.2098 6.44472 15.056 6.44472C14.9024 6.45472 14.7708 6.34409 14.7708 6.20294C14.672 3.87646 12.6088 1.97307 10.0737 1.89245C9.92009 1.88246 9.79935 1.77165 9.79935 1.63068C9.81024 1.48972 9.94207 1.37891 10.0957 1.37891C12.9271 1.47954 15.2207 3.58456 15.3197 6.1826L15.3195 6.18295Z" fill="#FFE8E1"/>
<path d="M14.0248 6.04308C14.0357 6.18405 13.9151 6.31502 13.7724 6.32502C13.6188 6.33501 13.4761 6.23437 13.4652 6.09341C13.3225 4.5021 11.9287 3.22306 10.1949 3.0821C10.0413 3.0721 9.92057 2.95112 9.94254 2.81016C9.95343 2.6692 10.0853 2.55838 10.2389 2.57855C12.2473 2.72968 13.8494 4.21 14.025 6.04309L14.0248 6.04308Z" fill="#FFE8E1"/>
<path d="M17.2944 16.7757C17.0763 16.9938 16.8147 17.0809 16.5421 17.0809C16.2477 17.0809 15.9425 16.972 15.6699 16.8192C14.5795 16.1651 13.6091 15.4237 12.7586 14.5732C11.9082 13.7229 11.1667 12.7635 10.5234 11.6622C10.3598 11.3897 10.2508 11.0953 10.2508 10.8009C10.2508 10.5284 10.3381 10.2776 10.5452 10.0596C10.9268 9.64521 11.4393 9.13295 11.8427 8.75125C11.9845 8.60946 12.0498 8.42421 12.0498 8.22796C12.0498 8.04272 11.9843 7.84646 11.8316 7.69365L8.24439 4.10677C8.09177 3.95417 7.90631 3.88868 7.71002 3.88868C7.51372 3.88868 7.31747 3.95416 7.17565 4.10677L5.12577 6.15644C3.75184 7.51924 4.91867 10.4629 7.15384 13.5048C8.0479 14.715 9.1056 15.9359 10.2504 17.0808C11.3952 18.2255 12.6166 19.2941 13.8268 20.177C16.8689 22.412 19.8129 23.5787 21.1868 22.2157L23.2257 20.1661C23.3783 20.0135 23.4546 19.8172 23.4546 19.621C23.4546 19.4357 23.3783 19.2395 23.2257 19.0977L19.6384 15.4998C19.4858 15.358 19.3004 15.2817 19.1041 15.2817C18.9078 15.2817 18.7115 15.358 18.5697 15.4998L17.2939 16.7755L17.2944 16.7757ZM16.5421 16.5358C16.6729 16.5358 16.8039 16.4921 16.902 16.3832L18.1778 15.1075C18.4286 14.8568 18.7666 14.726 19.1045 14.726C19.4426 14.726 19.7696 14.8568 20.0312 15.1075L23.6185 18.7054C23.8802 18.9562 24 19.2942 24 19.6213C24 19.9593 23.88 20.2971 23.6185 20.5479L21.5686 22.5975C20.2601 23.9058 17.8832 23.3607 15.2882 21.8125C13.0857 23.4697 11.7554 22.3358 10.4033 21.1801C9.41117 20.3188 8.38611 19.4466 6.96871 19.9481C6.82691 19.9917 6.6743 19.9154 6.61982 19.7736C6.57616 19.6319 6.65246 19.4684 6.79426 19.4248C8.50606 18.8252 9.65111 19.8063 10.7633 20.7549C11.9081 21.7362 13.0312 22.6954 14.7757 21.4963C14.3614 21.2345 13.9361 20.9403 13.4999 20.6241C12.2678 19.7191 11.0248 18.6289 9.85818 17.4734C8.70235 16.3177 7.62304 15.064 6.70712 13.832C4.31916 10.5832 3.13069 7.36686 4.73355 5.76418L6.78343 3.71451C7.03418 3.46378 7.37225 3.33301 7.71013 3.33301C8.0482 3.33301 8.37525 3.46378 8.63683 3.71451L12.2241 7.31242C12.4859 7.56315 12.6056 7.90117 12.6056 8.22824C12.6056 8.55527 12.4857 8.88232 12.2457 9.14406C11.8642 9.5584 11.3517 10.0599 10.9373 10.4413C10.8391 10.5395 10.8065 10.6702 10.8065 10.8012C10.8065 10.9865 10.8828 11.1937 10.9918 11.39C11.6132 12.4365 12.3328 13.3633 13.1506 14.181C13.9683 14.9987 14.8952 15.7182 15.9527 16.3396C16.138 16.4596 16.3453 16.5359 16.5416 16.5359L16.5421 16.5358Z" fill="#FFE8E1"/>
<path d="M0.0364264 23.9371C0.0342875 23.9381 0.0321487 23.9388 0.0302043 23.9392C0.0280654 23.9396 0.0259266 23.9399 0.0239822 23.9399C0.0171767 23.9399 0.0117326 23.9383 0.00764947 23.9349C0.00395509 23.9317 0.0022049 23.9269 0.0022049 23.9206C0.0022049 23.9149 0.00395484 23.9105 0.00764947 23.9071C0.0117327 23.9033 0.0171772 23.9014 0.0239822 23.9014C0.0259266 23.9014 0.0280654 23.9017 0.0302043 23.9021C0.0321487 23.9026 0.0342875 23.9033 0.0364264 23.9042V23.9121C0.0342875 23.9106 0.0321487 23.9098 0.0302043 23.9092C0.0286488 23.9089 0.0267044 23.9085 0.0247597 23.9085C0.0210653 23.9085 0.0179542 23.9098 0.0154266 23.9121C0.0132877 23.914 0.0123155 23.9169 0.0123155 23.9206C0.0123155 23.9246 0.0132877 23.9276 0.0154266 23.9299C0.0179543 23.9319 0.0210653 23.9328 0.0247597 23.9328C0.0267041 23.9328 0.0286485 23.9326 0.0302043 23.9321C0.0321487 23.9317 0.0342875 23.9306 0.0364264 23.9292V23.9371Z" fill="#FFE8E1"/>
<path d="M0.0665829 23.9194C0.0654223 23.9191 0.0644551 23.9187 0.0634879 23.9187C0.0629075 23.9183 0.0621338 23.918 0.0611666 23.918C0.0590387 23.918 0.0572978 23.9187 0.05575 23.9202C0.0542023 23.9216 0.0534288 23.9238 0.0534288 23.9267V23.9399H0.0441437V23.9114H0.0534288V23.9165C0.0549763 23.9147 0.0565238 23.9132 0.0580713 23.9121C0.0596188 23.9112 0.0613598 23.9106 0.0634879 23.9106H0.0642616C0.0646485 23.9106 0.0654223 23.911 0.0665829 23.9114V23.9194Z" fill="#FFE8E1"/>
<path d="M0.102314 23.9253V23.9282H0.0791956C0.0791956 23.9302 0.0799928 23.9319 0.0815872 23.9333C0.0831816 23.9344 0.0849753 23.9348 0.0871679 23.9348C0.0891608 23.9348 0.0913532 23.9346 0.0935455 23.9341C0.0961364 23.9331 0.098528 23.9322 0.10072 23.9311V23.9384C0.0979299 23.939 0.0955384 23.9395 0.0935455 23.9399C0.0913532 23.9403 0.0889616 23.9406 0.0863709 23.9406C0.0809897 23.9406 0.0768044 23.9395 0.0736156 23.937C0.0704268 23.9341 0.0688324 23.9304 0.0688324 23.926C0.0688324 23.9213 0.0704268 23.9176 0.0736156 23.915C0.0768044 23.9121 0.0809897 23.9106 0.0863709 23.9106C0.0911541 23.9106 0.0947414 23.9121 0.0975318 23.915C0.100721 23.9176 0.102315 23.9209 0.102315 23.9253L0.102314 23.9253ZM0.0919508 23.9224C0.0919508 23.9209 0.0913529 23.9198 0.0903564 23.9187C0.0891606 23.9172 0.0879648 23.9165 0.0863704 23.9165C0.0841781 23.9165 0.0823844 23.9172 0.0807897 23.9187C0.0795939 23.9198 0.0791953 23.9209 0.0791953 23.9224H0.0919508Z" fill="#FFE8E1"/>
<path d="M0.122115 23.9275C0.119922 23.9275 0.118328 23.9278 0.117332 23.9282C0.116734 23.9288 0.116534 23.9297 0.116534 23.9311C0.116534 23.9322 0.116734 23.9331 0.117332 23.9341C0.118328 23.9346 0.119723 23.9348 0.121318 23.9348C0.122912 23.9348 0.124108 23.9344 0.125304 23.9333C0.126898 23.9319 0.127695 23.9302 0.127695 23.9282V23.9275L0.122115 23.9275ZM0.137262 23.9238V23.9399H0.127695V23.9355C0.126101 23.9375 0.124507 23.939 0.122912 23.9399C0.121318 23.9403 0.119325 23.9406 0.117332 23.9406C0.114143 23.9406 0.111352 23.9399 0.109359 23.9384C0.107167 23.9366 0.106171 23.9341 0.106171 23.9311C0.106171 23.9282 0.107167 23.926 0.109359 23.9245C0.11195 23.9227 0.115937 23.9216 0.121318 23.9216H0.127695V23.9209C0.127695 23.9194 0.126898 23.9185 0.125304 23.918C0.124108 23.917 0.122314 23.9165 0.119723 23.9165C0.117531 23.9165 0.115338 23.9169 0.113345 23.9172C0.111751 23.9178 0.110157 23.9185 0.108562 23.9194V23.9121C0.110555 23.9117 0.112748 23.9114 0.11494 23.9114C0.116933 23.911 0.119125 23.9106 0.121318 23.9106C0.127097 23.9106 0.131083 23.9119 0.133276 23.9143C0.135867 23.9163 0.137262 23.9194 0.137262 23.9238Z" fill="#FFE8E1"/>
<path d="M0.156333 23.9038V23.9117H0.165667V23.9181H0.156333V23.9302C0.156333 23.9313 0.156528 23.932 0.157111 23.9324C0.1575 23.9329 0.158667 23.9331 0.160222 23.9331H0.164889V23.9395H0.157111C0.152834 23.9395 0.150112 23.9388 0.148556 23.9374C0.147 23.9359 0.146222 23.9336 0.146222 23.9302V23.9181H0.141556V23.9117H0.146222V23.9038L0.156333 23.9038Z" fill="#FFE8E1"/>
<path d="M0.202839 23.9253V23.9282H0.17972C0.17972 23.9302 0.180518 23.9319 0.182112 23.9333C0.183706 23.9344 0.1855 23.9348 0.187693 23.9348C0.189686 23.9348 0.191878 23.9346 0.19407 23.9341C0.196661 23.9331 0.199053 23.9322 0.201245 23.9311V23.9384C0.198455 23.939 0.196063 23.9395 0.19407 23.9399C0.191878 23.9403 0.189486 23.9406 0.186896 23.9406C0.181515 23.9406 0.177329 23.9395 0.174141 23.937C0.170952 23.9341 0.169357 23.9304 0.169357 23.926C0.169357 23.9213 0.170952 23.9176 0.174141 23.915C0.177329 23.9121 0.181515 23.9106 0.186896 23.9106C0.191679 23.9106 0.195266 23.9121 0.198057 23.915C0.201245 23.9176 0.20284 23.9209 0.20284 23.9253L0.202839 23.9253ZM0.192476 23.9224C0.192476 23.9209 0.191878 23.9198 0.190881 23.9187C0.189685 23.9172 0.18849 23.9165 0.186895 23.9165C0.184703 23.9165 0.182909 23.9172 0.181315 23.9187C0.180119 23.9198 0.17972 23.9209 0.17972 23.9224H0.192476Z" fill="#FFE8E1"/>
<path d="M0.229045 23.9154V23.9004H0.239155V23.9389H0.229045V23.9347C0.227878 23.9366 0.226711 23.938 0.225156 23.9389C0.2236 23.9393 0.221656 23.9396 0.219711 23.9396C0.215434 23.9396 0.212128 23.9386 0.209601 23.9361C0.207462 23.9332 0.20649 23.9297 0.20649 23.9254C0.20649 23.9211 0.207462 23.9175 0.209601 23.9147C0.212128 23.9118 0.215434 23.9104 0.219711 23.9104C0.221656 23.9104 0.2236 23.9109 0.225156 23.9118C0.226711 23.9123 0.227878 23.9136 0.229045 23.9154V23.9154ZM0.222823 23.9332C0.224767 23.9332 0.226322 23.9325 0.227489 23.9311C0.228461 23.9297 0.229045 23.9279 0.229045 23.9254C0.229045 23.9225 0.228461 23.9204 0.227489 23.9189C0.226322 23.9175 0.224767 23.9168 0.222823 23.9168C0.220684 23.9168 0.219128 23.9175 0.218156 23.9189C0.216989 23.9204 0.2166 23.9225 0.2166 23.9254C0.2166 23.9279 0.216989 23.9297 0.218156 23.9311C0.219128 23.9325 0.220684 23.9332 0.222823 23.9332Z" fill="#FFE8E1"/>
<path d="M0.28369 23.9332C0.285634 23.9332 0.28719 23.9325 0.288356 23.9311C0.289328 23.9297 0.289912 23.9279 0.289912 23.9254C0.289912 23.9225 0.289328 23.9204 0.288356 23.9189C0.28719 23.9175 0.285634 23.9168 0.28369 23.9168C0.281551 23.9168 0.279801 23.9175 0.278245 23.9189C0.277078 23.9204 0.27669 23.9225 0.27669 23.9254C0.27669 23.9279 0.277078 23.9297 0.278245 23.9311C0.279801 23.9325 0.28155 23.9332 0.28369 23.9332ZM0.27669 23.9154C0.278246 23.9136 0.279801 23.9123 0.281357 23.9118C0.282912 23.9109 0.284662 23.9104 0.286801 23.9104C0.290301 23.9104 0.293412 23.9118 0.296134 23.9147C0.298662 23.9175 0.300023 23.9211 0.300023 23.9254C0.300023 23.9297 0.298662 23.9332 0.296134 23.9361C0.293412 23.9386 0.290301 23.9396 0.286801 23.9396C0.284662 23.9396 0.282912 23.9393 0.281357 23.9389C0.279801 23.938 0.278246 23.9366 0.27669 23.9347V23.9389H0.267357V23.9004H0.27669V23.9154Z" fill="#FFE8E1"/>
<path d="M0.302742 23.9116H0.312075L0.320631 23.9309L0.32763 23.9116H0.336963L0.324519 23.9423C0.322964 23.9452 0.321408 23.947 0.319853 23.948C0.318297 23.9494 0.315964 23.9502 0.312853 23.9502H0.307409V23.9445H0.31052C0.312075 23.9445 0.313047 23.9441 0.313631 23.9437C0.314603 23.9432 0.315381 23.9425 0.315964 23.9416V23.9402L0.302742 23.9116Z" fill="#FFE8E1"/>
<path d="M0.358353 23.9116H0.368463L0.37313 23.9309L0.378574 23.9116H0.386352L0.391797 23.9309L0.396463 23.9116H0.405796L0.398019 23.9395H0.38713L0.382463 23.9202L0.377019 23.9395H0.366908L0.358353 23.9116Z" fill="#FFE8E1"/>
<path d="M0.425826 23.9275C0.423633 23.9275 0.422039 23.9278 0.421042 23.9282C0.420445 23.9288 0.420245 23.9297 0.420245 23.9311C0.420245 23.9322 0.420445 23.9331 0.421042 23.9341C0.422039 23.9346 0.423434 23.9348 0.425028 23.9348C0.426623 23.9348 0.427819 23.9344 0.429015 23.9333C0.430609 23.9319 0.431406 23.9302 0.431406 23.9282V23.9275L0.425826 23.9275ZM0.440973 23.9238V23.9399H0.431406V23.9355C0.429812 23.9375 0.428218 23.939 0.426623 23.9399C0.425029 23.9403 0.423036 23.9406 0.421042 23.9406C0.417854 23.9406 0.415063 23.9399 0.41307 23.9384C0.410878 23.9366 0.409882 23.9341 0.409882 23.9311C0.409882 23.9282 0.410878 23.926 0.41307 23.9245C0.415661 23.9227 0.419648 23.9216 0.425029 23.9216H0.431406V23.9209C0.431406 23.9194 0.430609 23.9185 0.429015 23.918C0.427819 23.917 0.426025 23.9165 0.423434 23.9165C0.421242 23.9165 0.419049 23.9169 0.417056 23.9172C0.415462 23.9178 0.413868 23.9185 0.412273 23.9194V23.9121C0.414266 23.9117 0.416459 23.9114 0.418651 23.9114C0.420644 23.911 0.422836 23.9106 0.425028 23.9106C0.430808 23.9106 0.434794 23.9119 0.436987 23.9143C0.439578 23.9163 0.440973 23.9194 0.440973 23.9238Z" fill="#FFE8E1"/>
<path d="M0.449158 23.9004H0.458491V23.9211L0.470158 23.9111H0.481047L0.466269 23.9239L0.482602 23.9389H0.470935L0.458491 23.9275V23.9389H0.449158L0.449158 23.9004Z" fill="#FFE8E1"/>
<path d="M0.482605 23.9116H0.492716L0.497382 23.9309L0.502827 23.9116H0.510604L0.516049 23.9309L0.520716 23.9116H0.530049L0.522271 23.9395H0.511382L0.506716 23.9202L0.501271 23.9395H0.491161L0.482605 23.9116Z" fill="#FFE8E1"/>
<path d="M0.54988 23.9275C0.547687 23.9275 0.546093 23.9278 0.545096 23.9282C0.544498 23.9288 0.544299 23.9297 0.544299 23.9311C0.544299 23.9322 0.544498 23.9331 0.545096 23.9341C0.546093 23.9346 0.547488 23.9348 0.549082 23.9348C0.550677 23.9348 0.551873 23.9344 0.553068 23.9333C0.554663 23.9319 0.55546 23.9302 0.55546 23.9282V23.9275L0.54988 23.9275ZM0.565027 23.9238V23.9399H0.55546V23.9355C0.553866 23.9375 0.552272 23.939 0.550677 23.9399C0.549083 23.9403 0.54709 23.9406 0.545096 23.9406C0.541908 23.9406 0.539117 23.9399 0.537124 23.9384C0.534932 23.9366 0.533936 23.9341 0.533936 23.9311C0.533936 23.9282 0.534932 23.926 0.537124 23.9245C0.539715 23.9227 0.543701 23.9216 0.549083 23.9216H0.55546V23.9209C0.55546 23.9194 0.554663 23.9185 0.553069 23.918C0.551873 23.917 0.550079 23.9165 0.547488 23.9165C0.545296 23.9165 0.543103 23.9169 0.54111 23.9172C0.539516 23.9178 0.537922 23.9185 0.536327 23.9194V23.9121C0.53832 23.9117 0.540512 23.9114 0.542705 23.9114C0.544698 23.911 0.54689 23.9106 0.549082 23.9106C0.554862 23.9106 0.558848 23.9119 0.561041 23.9143C0.563632 23.9163 0.565027 23.9194 0.565027 23.9238Z" fill="#FFE8E1"/>
<path d="M0.573403 23.9292V23.9116H0.582969V23.9145V23.9204V23.9248V23.9299C0.582969 23.931 0.583168 23.9317 0.583766 23.9321C0.584165 23.9327 0.584763 23.9332 0.585361 23.9336C0.585759 23.9341 0.586557 23.9343 0.587752 23.9343C0.589745 23.9343 0.59134 23.9336 0.592536 23.9321C0.593532 23.9306 0.59413 23.9284 0.59413 23.9255V23.9116H0.604493V23.9402H0.59413V23.9358C0.592536 23.9378 0.590941 23.9392 0.589347 23.9402C0.587752 23.9405 0.585759 23.9409 0.583766 23.9409C0.580577 23.9409 0.577787 23.94 0.575794 23.938C0.5742 23.9361 0.573402 23.9332 0.573402 23.9292L0.573403 23.9292Z" fill="#FFE8E1"/>
<path d="M0.0241111 23.9507V23.9564H0.0186665C0.017111 23.9564 0.0159444 23.9568 0.0155555 23.9571C0.0149721 23.9576 0.0147777 23.9584 0.0147777 23.9592V23.9614H0.0233333V23.9678H0.0147777V23.9892H0.00544457V23.9678H0V23.9614H0.00544457V23.9592C0.00544457 23.9564 0.00622233 23.9543 0.00777786 23.9528C0.00972228 23.9514 0.0126388 23.9507 0.0163335 23.9507L0.0241111 23.9507Z" fill="#FFE8E1"/>
<path d="M0.0502407 23.9692C0.0490801 23.9689 0.0481129 23.9685 0.0471457 23.9685C0.0465654 23.9681 0.0457916 23.9678 0.0448244 23.9678C0.0426966 23.9678 0.0409556 23.9685 0.0394079 23.97C0.0378601 23.9714 0.0370866 23.9736 0.0370866 23.9765V23.9897H0.0278015V23.9612H0.0370866V23.9663C0.0386341 23.9645 0.0401816 23.963 0.0417292 23.9619C0.0432767 23.961 0.0450176 23.9604 0.0471457 23.9604H0.0479195C0.0483063 23.9604 0.0490801 23.9608 0.0502407 23.9612V23.9692Z" fill="#FFE8E1"/>
<path d="M0.0692392 23.967C0.0670468 23.967 0.0654524 23.9678 0.0644559 23.9692C0.0632601 23.9707 0.0628615 23.9729 0.0628615 23.9758C0.0628615 23.9784 0.0632601 23.9802 0.0644559 23.9817C0.0654524 23.9831 0.0670468 23.9839 0.0692392 23.9839C0.0712322 23.9839 0.0728266 23.9831 0.0740224 23.9817C0.0756168 23.9802 0.076414 23.9784 0.076414 23.9758C0.076414 23.9729 0.0756168 23.9707 0.0740224 23.9692C0.0728266 23.9678 0.0712322 23.967 0.0692392 23.967ZM0.0692392 23.9604C0.0744209 23.9604 0.0788056 23.9619 0.0819944 23.9648C0.0851833 23.9674 0.0867777 23.9711 0.0867777 23.9758C0.0867777 23.9802 0.0851833 23.9839 0.0819944 23.9868C0.0788056 23.9893 0.0744209 23.9904 0.0692392 23.9904C0.063858 23.9904 0.0596727 23.9893 0.0564839 23.9868C0.0536936 23.9839 0.0524979 23.9802 0.0524979 23.9758C0.0524979 23.9711 0.0536937 23.9674 0.0564839 23.9648C0.0596727 23.9619 0.063858 23.9604 0.0692392 23.9604Z" fill="#FFE8E1"/>
<path d="M0.120552 23.9662C0.121524 23.9644 0.122885 23.9629 0.124441 23.9619C0.126385 23.961 0.128524 23.9604 0.130663 23.9604C0.133774 23.9604 0.136107 23.9615 0.137662 23.9633C0.139607 23.9653 0.140773 23.9681 0.140773 23.9719V23.989H0.13144V23.9747V23.974V23.9726C0.13144 23.9708 0.131051 23.9695 0.130662 23.969C0.130079 23.9681 0.129107 23.9676 0.127551 23.9676C0.125413 23.9676 0.123857 23.9683 0.122885 23.9697C0.121718 23.9708 0.121329 23.9726 0.121329 23.9754V23.989H0.111996V23.9747C0.111996 23.9715 0.111607 23.9695 0.111218 23.969C0.110635 23.9681 0.109663 23.9676 0.108107 23.9676C0.105969 23.9676 0.104413 23.9683 0.103441 23.9697C0.102274 23.9708 0.101885 23.9726 0.101885 23.9754V23.989H0.0925522V23.9612H0.101885V23.9654C0.103441 23.964 0.104996 23.9629 0.106552 23.9619C0.108107 23.961 0.109663 23.9604 0.111218 23.9604C0.113163 23.9604 0.115107 23.961 0.116663 23.9619C0.118219 23.9629 0.119385 23.9644 0.120552 23.9662V23.9662Z" fill="#FFE8E1"/>
<path d="M0.179664 23.9536V23.9615H0.188997V23.9679H0.179664V23.98C0.179664 23.9811 0.179859 23.9818 0.180442 23.9822C0.180831 23.9827 0.181997 23.9829 0.183553 23.9829H0.18822V23.9893H0.180442C0.176164 23.9893 0.173442 23.9886 0.171886 23.9872C0.17033 23.9857 0.169553 23.9834 0.169553 23.98V23.9679H0.164886V23.9615H0.169553V23.9536L0.179664 23.9536Z" fill="#FFE8E1"/>
<path d="M0.225355 23.9721V23.9892H0.216022V23.9764C0.216022 23.9741 0.215633 23.9725 0.215245 23.9714V23.9692C0.214661 23.9689 0.213884 23.9685 0.212911 23.9685C0.212328 23.9682 0.211745 23.9678 0.211356 23.9678C0.209217 23.9678 0.207467 23.9685 0.205911 23.97C0.204745 23.9714 0.204356 23.9733 0.204356 23.9757V23.9892H0.195023V23.9507H0.204356V23.9657C0.205911 23.9639 0.207467 23.9626 0.209022 23.9621C0.210578 23.9612 0.212328 23.9607 0.214467 23.9607C0.217967 23.9607 0.220689 23.9617 0.222244 23.9635C0.224189 23.9655 0.225355 23.9683 0.225355 23.9721V23.9721Z" fill="#FFE8E1"/>
<path d="M0.265255 23.9751V23.978H0.242137C0.242137 23.98 0.242934 23.9817 0.244528 23.9831C0.246123 23.9842 0.247916 23.9846 0.250109 23.9846C0.252102 23.9846 0.254294 23.9844 0.256486 23.9839C0.259077 23.9829 0.261469 23.982 0.263661 23.9809V23.9883C0.260871 23.9888 0.258479 23.9893 0.256486 23.9897C0.254294 23.9901 0.251903 23.9904 0.249312 23.9904C0.243931 23.9904 0.239745 23.9893 0.236557 23.9868C0.233368 23.9839 0.231773 23.9802 0.231773 23.9758C0.231773 23.9711 0.233368 23.9674 0.236557 23.9648C0.239745 23.9619 0.243931 23.9604 0.249312 23.9604C0.254095 23.9604 0.257682 23.9619 0.260473 23.9648C0.263662 23.9674 0.265256 23.9707 0.265256 23.9751L0.265255 23.9751ZM0.254892 23.9722C0.254892 23.9707 0.254294 23.9696 0.253297 23.9685C0.252102 23.967 0.250906 23.9663 0.249311 23.9663C0.247119 23.9663 0.245325 23.967 0.243731 23.9685C0.242535 23.9696 0.242136 23.9707 0.242136 23.9722H0.254892Z" fill="#FFE8E1"/>
<path d="M0.291276 23.9526H0.302164L0.316942 23.9783V23.9526H0.327053V23.9898H0.315386L0.300608 23.9641V23.9898H0.291275L0.291276 23.9526Z" fill="#FFE8E1"/>
<path d="M0.350787 23.967C0.348594 23.967 0.347 23.9678 0.346003 23.9692C0.344808 23.9707 0.344409 23.9729 0.344409 23.9758C0.344409 23.9784 0.344808 23.9802 0.346003 23.9817C0.347 23.9831 0.348594 23.9839 0.350787 23.9839C0.35278 23.9839 0.354374 23.9831 0.35557 23.9817C0.357164 23.9802 0.357962 23.9784 0.357962 23.9758C0.357962 23.9729 0.357164 23.9707 0.35557 23.9692C0.354374 23.9678 0.35278 23.967 0.350787 23.967ZM0.350787 23.9604C0.355968 23.9604 0.360353 23.9619 0.363542 23.9648C0.366731 23.9674 0.368325 23.9711 0.368325 23.9758C0.368325 23.9802 0.366731 23.9839 0.363542 23.9868C0.360353 23.9893 0.355968 23.9904 0.350787 23.9904C0.345406 23.9904 0.34122 23.9893 0.338031 23.9868C0.335241 23.9839 0.334045 23.9802 0.334045 23.9758C0.334045 23.9711 0.335241 23.9674 0.338031 23.9648C0.34122 23.9619 0.345406 23.9604 0.350787 23.9604Z" fill="#FFE8E1"/>
<path d="M0.3741 23.979V23.9614H0.383666V23.9644V23.9702V23.9746V23.9797C0.383666 23.9808 0.383866 23.9815 0.384464 23.9819C0.384862 23.9825 0.38546 23.983 0.386058 23.9834C0.386457 23.9839 0.387254 23.9841 0.38845 23.9841C0.390443 23.9841 0.392037 23.9834 0.393233 23.9819C0.394229 23.9804 0.394827 23.9783 0.394827 23.9753V23.9614H0.405191V23.99H0.394827V23.9856C0.393233 23.9876 0.391638 23.989 0.390044 23.99C0.38845 23.9903 0.386457 23.9907 0.384463 23.9907C0.381275 23.9907 0.378484 23.9898 0.376491 23.9878C0.374897 23.9859 0.3741 23.983 0.3741 23.979L0.3741 23.979Z" fill="#FFE8E1"/>
<path d="M0.444284 23.9722V23.9897H0.434718V23.9765C0.434718 23.9742 0.434319 23.9725 0.43392 23.9714V23.9692C0.433322 23.9689 0.432525 23.9685 0.431529 23.9685C0.430931 23.9681 0.430333 23.9678 0.429934 23.9678C0.427742 23.9678 0.425948 23.9685 0.424354 23.97C0.423158 23.9714 0.422759 23.9734 0.422759 23.9758V23.9897H0.413193V23.9612H0.422759V23.9656C0.424354 23.9637 0.425948 23.9625 0.427542 23.9619C0.429137 23.961 0.430931 23.9604 0.433123 23.9604C0.436711 23.9604 0.439501 23.9615 0.441095 23.9634C0.443088 23.9654 0.444284 23.9683 0.444284 23.9722V23.9722Z" fill="#FFE8E1"/>
<path d="M0.472099 23.9526H0.48921C0.494265 23.9526 0.498154 23.9539 0.500877 23.9562C0.503404 23.9582 0.504765 23.961 0.504765 23.9648C0.504765 23.9687 0.503404 23.9717 0.500877 23.974C0.498155 23.976 0.494266 23.9769 0.48921 23.9769H0.48221V23.9898H0.4721L0.472099 23.9526ZM0.48221 23.9598V23.9698H0.487655C0.489599 23.9698 0.491154 23.9696 0.492321 23.9691C0.493293 23.9682 0.493877 23.9667 0.493877 23.9648C0.493877 23.9633 0.493293 23.9623 0.492321 23.9612C0.491154 23.9603 0.489599 23.9598 0.487655 23.9598H0.48221Z" fill="#FFE8E1"/>
<path d="M0.534013 23.9692C0.532852 23.9689 0.531885 23.9685 0.530918 23.9685C0.530338 23.9681 0.529564 23.9678 0.528597 23.9678C0.526469 23.9678 0.524728 23.9685 0.52318 23.97C0.521632 23.9714 0.520859 23.9736 0.520859 23.9765V23.9897H0.511574V23.9612H0.520859V23.9663C0.522406 23.9645 0.523954 23.963 0.525501 23.9619C0.527049 23.961 0.52879 23.9604 0.530918 23.9604H0.531692C0.532079 23.9604 0.532852 23.9608 0.534013 23.9612V23.9692Z" fill="#FFE8E1"/>
<path d="M0.553004 23.967C0.550811 23.967 0.549217 23.9678 0.548221 23.9692C0.547025 23.9707 0.546626 23.9729 0.546626 23.9758C0.546626 23.9784 0.547025 23.9802 0.548221 23.9817C0.549217 23.9831 0.550811 23.9839 0.553004 23.9839C0.554997 23.9839 0.556591 23.9831 0.557787 23.9817C0.559381 23.9802 0.560179 23.9784 0.560179 23.9758C0.560179 23.9729 0.559381 23.9707 0.557787 23.9692C0.556591 23.9678 0.554997 23.967 0.553004 23.967ZM0.553004 23.9604C0.558186 23.9604 0.56257 23.9619 0.565759 23.9648C0.568948 23.9674 0.570542 23.9711 0.570542 23.9758C0.570542 23.9802 0.568948 23.9839 0.565759 23.9868C0.56257 23.9893 0.558186 23.9904 0.553004 23.9904C0.547623 23.9904 0.543437 23.9893 0.540249 23.9868C0.537458 23.9839 0.536263 23.9802 0.536263 23.9758C0.536263 23.9711 0.537458 23.9674 0.540249 23.9648C0.543437 23.9619 0.547623 23.9604 0.553004 23.9604Z" fill="#FFE8E1"/>
<path d="M0.576138 23.9614H0.585197V23.9885C0.585197 23.9923 0.584064 23.9951 0.582177 23.9971C0.580667 23.9989 0.578025 23.9999 0.574628 23.9999H0.570099V23.9942H0.571609C0.573118 23.9942 0.574062 23.9937 0.574628 23.9928C0.575572 23.9923 0.576138 23.9908 0.576138 23.9885V23.9614ZM0.576138 23.9507H0.585197V23.9578H0.576138V23.9507Z" fill="#FFE8E1"/>
<path d="M0.626133 23.9751V23.978H0.603015C0.603015 23.98 0.603812 23.9817 0.605406 23.9831C0.607001 23.9842 0.608794 23.9846 0.610987 23.9846C0.61298 23.9846 0.615172 23.9844 0.617364 23.9839C0.619955 23.9829 0.622347 23.982 0.624539 23.9809V23.9883C0.621749 23.9888 0.619357 23.9893 0.617364 23.9897C0.615172 23.9901 0.612781 23.9904 0.61019 23.9904C0.604809 23.9904 0.600623 23.9893 0.597435 23.9868C0.594246 23.9839 0.592651 23.9802 0.592651 23.9758C0.592651 23.9711 0.594246 23.9674 0.597435 23.9648C0.600623 23.9619 0.604809 23.9604 0.61019 23.9604C0.614973 23.9604 0.61856 23.9619 0.621351 23.9648C0.62454 23.9674 0.626134 23.9707 0.626134 23.9751L0.626133 23.9751ZM0.61577 23.9722C0.61577 23.9707 0.615172 23.9696 0.614175 23.9685C0.61298 23.967 0.611784 23.9663 0.610189 23.9663C0.607997 23.9663 0.606203 23.967 0.604609 23.9685C0.603413 23.9696 0.603014 23.9707 0.603014 23.9722H0.61577Z" fill="#FFE8E1"/>
<path d="M0.657095 23.9619V23.97C0.655899 23.969 0.654703 23.9683 0.653109 23.9678C0.651913 23.9674 0.650717 23.967 0.649123 23.967C0.646332 23.967 0.644339 23.9678 0.642745 23.9692C0.64115 23.9707 0.640353 23.9729 0.640353 23.9758C0.640353 23.9784 0.64115 23.9802 0.642745 23.9817C0.644339 23.9831 0.646332 23.9839 0.649123 23.9839C0.650717 23.9839 0.651913 23.9837 0.653109 23.9831C0.654703 23.9828 0.655899 23.9822 0.657095 23.9817V23.989C0.6555 23.9895 0.653906 23.9897 0.652311 23.9897C0.650717 23.9901 0.649123 23.9904 0.647528 23.9904C0.642147 23.9904 0.637962 23.9893 0.634773 23.9868C0.631584 23.9839 0.62999 23.9802 0.62999 23.9758C0.62999 23.9711 0.631584 23.9674 0.634773 23.9648C0.637962 23.9619 0.642147 23.9604 0.647528 23.9604C0.649123 23.9604 0.650717 23.9608 0.652311 23.9612C0.653906 23.9612 0.6555 23.9615 0.657095 23.9619V23.9619Z" fill="#FFE8E1"/>
<path d="M0.675682 23.9536V23.9615H0.685015V23.9679H0.675682V23.98C0.675682 23.9811 0.675876 23.9818 0.676459 23.9822C0.676848 23.9827 0.678015 23.9829 0.67957 23.9829H0.684237V23.9893H0.676459C0.672182 23.9893 0.66946 23.9886 0.667904 23.9872C0.666348 23.9857 0.66557 23.9834 0.66557 23.98V23.9679H0.660904V23.9615H0.66557V23.9536L0.675682 23.9536Z" fill="#FFE8E1"/>
</svg>
